<svg width="125" height="14" viewBox="0 0 125 14" fill="none" xmlns="http://www.w3.org/2000/svg">
<g clip-path="url(#clip0_1_482)">
<path d="M2.07466 0H0V14H2.07466V0Z" fill="white"/>
<path d="M5.9942 6.64544L10.2922 0H8.00805L4.27771 5.88905V7.57742L8.21754 14H10.5625L5.9942 6.68596V6.64544Z" fill="white"/>
<path d="M29.7818 10.2721C29.6509 10.759 29.5605 11.256 29.5115 11.7578H29.4709C29.3905 11.2575 29.2845 10.7616 29.1533 10.2721L26.261 0H24.4161L21.5237 10.2721C21.3927 10.7612 21.2889 11.2572 21.2128 11.7578H21.1723C21.1074 11.2579 21.0149 10.7619 20.8952 10.2721L18.2799 0H16.1377L19.9086 14H22.3009L24.8824 4.91655C25.1324 4.02508 25.3216 2.93777 25.3216 2.93777H25.3622C25.3622 2.93777 25.5514 4.02508 25.8014 4.91655L28.3829 14H30.7955L34.6475 0H32.5052L29.7818 10.2721Z" fill="white"/>
<path d="M42.4596 7.79354H47.7577V6.09166H42.4596V1.70863H48.9741V0H40.3849V14H49.3323V12.2914H42.4596V7.79354Z" fill="white"/>
<path d="M64.5375 9.10371C64.5375 9.87361 64.6862 11.1298 64.6862 11.1298H64.6456C64.6456 11.1298 63.9698 9.86011 63.4089 9.10371L56.8268 0H54.7994V14H56.8741V4.91655C56.8741 4.12639 56.7254 2.8905 56.7254 2.8905H56.766C56.766 2.8905 57.4418 4.16015 58.0027 4.91655L64.6051 14H66.6324V0H64.5375V9.10371Z" fill="white"/>
<path d="M72.4509 1.70863H77.5261V14H79.6007V1.70863H84.6759V0H72.4509V1.70863Z" fill="white"/>
<path d="M92.5015 0H90.4269V14H92.5015V0Z" fill="white"/>
<path d="M97.9889 2.18813H106.132C106.748 2.17256 107.362 2.11843 107.97 2.02605V2.08008C107.338 2.56182 106.734 3.07812 106.159 3.62663L97.9889 11.8321V14H110.511V11.8051H102.402C101.788 11.8277 101.176 11.8886 100.57 11.9875V11.9402C100.57 11.9402 101.706 11.0757 102.402 10.3936L110.511 2.14086V0H97.9889V2.18813Z" fill="white"/>
<path d="M118.127 12.2914V7.79354H123.425V6.09166H118.127V1.70863H124.642V0H116.053V14H125V12.2914H118.127Z" fill="white"/>
</g>
<defs>
<clipPath id="clip0_1_482">
<rect width="125" height="14" fill="white"/>
</clipPath>
</defs>
</svg>
