<svg width="2539" height="317" viewBox="0 0 2539 317" fill="none" xmlns="http://www.w3.org/2000/svg">
<path d="M2425.75 239.262L2333.4 176.039L2254.6 122.217L2186.83 75.9153L2127.57 35.4898L2075.57 0H1929.32H1925.22H1783.06H1779.28H1636.81H1633.35H1490.56H1487.41H1344.63H1341.47H1198.38H1195.22H1052.44H1049.29H906.504H903.037H760.568H756.786H614.632H610.535H464.284L412.276 35.4898L353.02 75.9153L281.155 124.567L205.823 176.039L110.003 241.613L0 316.823H230.724H234.821H461.132H464.914H691.54H695.007H921.949H925.101H1152.36H1155.51H1382.77H1385.92H1613.17H1616.33H1843.27H1846.73H2073.99H2077.77H2304.08H2308.18H2538.9L2425.75 239.262ZM364.051 208.943L400.614 178.624H590.047L561.679 208.943L533.312 239.262H327.804L364.051 208.943ZM568.929 37.8401H721.169L703.518 56.8777L685.867 75.9153H523.226L545.92 56.8777L568.929 37.8401ZM1992.98 56.8777L2015.68 75.9153H1853.35L1835.7 56.8777L1818.05 37.8401H1970.29L1992.98 56.8777ZM2135.77 176.039H1946.97L1923.01 150.185L1899.06 124.332H2074.31L2105.19 150.185L2135.77 176.039ZM619.991 150.42L643.946 124.567H819.51L802.489 150.42L785.469 176.274H596.036L619.991 150.42ZM687.127 78.2656H850.399L835.9 100.359L821.401 122.452H646.152L666.64 100.359L687.127 78.2656ZM1872.26 100.359L1892.75 122.452H1717.82L1703.32 100.359L1688.82 78.2656H1852.09L1872.26 100.359ZM1699.85 100.359L1714.35 122.452H1539.1L1530.28 100.359L1521.45 78.2656H1685.04L1699.85 100.359ZM1527.12 100.359L1535.95 122.452H1360.39L1357.55 100.359L1354.71 78.2656H1518.3L1527.12 100.359ZM1354.4 100.359L1357.23 122.452H1181.67L1184.51 100.359L1187.34 78.2656H1351.25L1354.4 100.359ZM1181.67 100.359L1178.83 122.452H1003.27L1012.09 100.359L1020.92 78.2656H1184.51L1181.67 100.359ZM1008.63 100.359L999.802 122.452H824.553L839.052 100.359L853.551 78.2656H1017.14L1008.63 100.359ZM805.956 150.42L822.977 124.567H998.856L988.455 150.42L978.053 176.274H788.621L805.956 150.42ZM991.922 150.42L1002.32 124.567H1178.52L1175.05 150.42L1171.58 176.274H981.836L991.922 150.42ZM1178.2 150.42L1181.67 124.567H1357.86L1361.33 150.42L1364.8 176.274H1175.05L1178.2 150.42ZM1364.17 150.42L1360.7 124.567H1536.9L1547.3 150.42L1557.7 176.274H1367.95L1364.17 150.42ZM1550.45 150.42L1540.05 124.567H1715.93L1732.95 150.42L1749.97 176.274H1560.54L1550.45 150.42ZM1736.73 150.42L1719.71 124.567H1895.27L1919.23 150.42L1943.18 176.274H1753.75L1736.73 150.42ZM2071.47 122.217H1896.85L1876.36 100.124L1855.87 78.0305H2018.83L2045.31 100.124L2071.47 122.217ZM1831.92 56.8777L1849.57 75.9153H1686.93L1674.32 56.8777L1661.71 37.8401H1814.27L1831.92 56.8777ZM1670.85 56.8777L1683.46 75.9153H1520.51L1512.94 56.8777L1505.38 37.8401H1658.25L1670.85 56.8777ZM1509.79 56.8777L1517.35 75.9153H1354.4L1351.88 56.8777L1349.35 37.8401H1502.22L1509.79 56.8777ZM1348.72 56.8777L1351.25 75.9153H1187.97L1190.5 56.8777L1193.02 37.8401H1345.89L1348.72 56.8777ZM1187.34 56.8777L1184.82 75.9153H1021.87L1029.43 56.8777L1037 37.8401H1189.87L1187.34 56.8777ZM1025.96 56.8777L1018.4 75.9153H855.442L868.05 56.8777L880.658 37.8401H1033.53L1025.96 56.8777ZM864.583 56.8777L851.975 75.9153H689.334L706.985 56.8777L724.636 37.8401H877.191L864.583 56.8777ZM520.389 78.2656H683.345L662.857 100.359L642.37 122.452H467.751L494.227 100.359L520.389 78.2656ZM464.914 124.567H640.163L616.208 150.42L592.253 176.274H403.451L434.34 150.42L464.914 124.567ZM565.462 208.943L593.829 178.624H783.893L763.72 208.943L743.548 239.262H537.409L565.462 208.943ZM767.187 208.943L787.36 178.624H977.423L965.13 208.943L952.838 239.262H747.015L767.187 208.943ZM968.598 208.943L980.89 178.624H1171.27L1167.17 208.943L1163.07 239.262H956.62L968.598 208.943ZM1170.32 208.943L1174.42 178.624H1364.8L1368.9 208.943L1372.99 239.262H1166.23L1170.32 208.943ZM1372.05 208.943L1367.95 178.389H1558.33L1582.6 239.262H1376.15L1372.05 208.943ZM1561.48 178.389H1751.54L1771.72 208.708L1791.89 239.027H1585.44L1561.48 178.389ZM1775.5 208.943L1755.33 178.624H1945.39L1973.76 208.943L2002.13 239.262H1795.99L1775.5 208.943ZM1977.22 208.943L1948.86 178.624H2138.29L2174.85 208.943L2211.42 239.262H2005.59L1977.22 208.943ZM2215.51 239.262L2178.95 208.943L2142.39 178.624H2331.51L2420.39 239.497H2215.51V239.262ZM2139.87 176.039L2108.98 150.185L2078.09 124.332H2253.02L2328.35 175.804H2139.87V176.039ZM2075.57 122.217L2049.09 100.124L2022.61 78.0305H2185.25L2249.87 122.217H2075.57ZM2020.09 75.9153L1997.4 56.8777L1974.7 37.8401H2126.31L2182.1 75.9153H2020.09ZM2074.31 2.35032L2122.85 35.4898H1971.87L1952.01 18.8025L1931.84 2.35032H2074.31ZM1784.96 2.35032H1927.74L1947.6 19.0376L1967.45 35.7248H1815.84L1800.4 19.0376L1784.96 2.35032ZM1781.17 2.35032L1796.62 19.0376L1812.06 35.7248H1660.14L1649.11 19.0376L1638.07 2.35032H1781.17ZM1634.61 2.35032L1645.64 19.0376L1656.67 35.7248H1504.43L1497.81 19.0376L1491.19 2.35032H1634.61ZM1344.63 2.35032H1488.04L1494.66 19.0376L1501.28 35.7248H1349.04L1346.83 19.0376L1344.63 2.35032ZM1341.47 2.35032L1343.68 19.0376L1345.89 35.7248H1193.65L1195.85 19.0376L1197.75 2.35032H1341.47ZM1051.18 2.35032H1194.59L1192.39 19.0376L1190.18 35.7248H1037.94L1044.56 19.0376L1051.18 2.35032ZM1047.71 2.35032L1041.09 19.0376L1034.47 35.7248H882.549L893.581 19.0376L904.613 2.35032H1047.71ZM758.047 2.35032H901.146L890.114 19.0376L879.082 35.7248H727.157L742.602 19.0376L758.047 2.35032ZM753.949 2.35032L738.504 19.0376L723.06 35.7248H571.451L591.308 19.0376L611.48 2.35032H753.949ZM464.914 2.35032H607.068L587.21 19.0376L567.353 35.7248H416.374L464.914 2.35032ZM412.907 37.8401H564.516L541.822 56.8777L519.128 75.9153H357.117L412.907 37.8401ZM353.65 78.2656H516.291L489.815 100.359L463.338 122.452H289.35L353.65 78.2656ZM285.883 124.567H460.817L429.927 150.42L399.038 176.274H210.551L285.883 124.567ZM207.084 178.389H396.201L359.639 208.708L323.076 239.027H118.199L207.084 178.389ZM8.1951 314.472L114.731 241.613H320.554L277.057 278.043L233.56 314.472H8.1951ZM463.338 314.472H237.658L281.155 278.043L324.652 241.613H531.105L497.064 278.043L463.338 314.472ZM467.121 314.472L501.162 278.043L535.203 241.613H741.972L717.701 278.043L693.431 314.472H467.121ZM923.209 314.472H696.899L721.169 278.043L745.439 241.613H952.523L938.024 278.043L923.209 314.472ZM926.677 314.472L941.176 278.043L955.675 241.613H1162.76L1158.03 278.043L1153.3 314.472H926.677ZM1382.77 314.472H1156.14L1160.87 278.043L1165.6 241.613H1372.68L1377.41 278.043L1382.77 314.472ZM1385.92 314.472L1381.19 278.043L1376.46 241.613H1583.55L1612.54 314.472H1385.92ZM1616.01 314.472L1587.01 241.613H1794.1L1818.37 278.043L1842.64 314.472H1616.01ZM2071.78 314.472H1845.79L1821.52 278.043L1797.25 241.613H2004.02L2038.06 278.043L2071.78 314.472ZM2075.57 314.472L2041.53 278.043L2007.8 241.613H2214.25L2301.56 314.472H2075.57ZM2305.66 314.472L2218.35 241.613H2424.17L2530.71 314.472H2305.66Z" fill="url(#paint0_linear_157_4)" fill-opacity="0.6"/>
<defs>
<linearGradient id="paint0_linear_157_4" x1="1269.45" y1="9.77848" x2="1269.45" y2="316.823" gradientUnits="userSpaceOnUse">
<stop stop-color="#C79A60" stop-opacity="0"/>
<stop offset="0.497779" stop-color="#C89A5E" stop-opacity="0.16"/>
<stop offset="1" stop-color="#97EFF7" stop-opacity="0.22"/>
</linearGradient>
</defs>
</svg>
