<svg width="128" height="18" viewBox="0 0 128 18" fill="none" xmlns="http://www.w3.org/2000/svg">
<g clip-path="url(#clip0_6_611)">
<path d="M10.1055 0L19.3004 5.71872V11.4375L10.1055 5.71872V0Z" fill="url(#paint0_linear_6_611)"/>
<path d="M10.1055 17.7916L19.3004 12.1307V6.46967L10.1055 12.1307V17.7916Z" fill="url(#paint1_linear_6_611)"/>
<path d="M10.1055 0L1.13757 5.71872V11.4375L10.1055 5.71872V0Z" fill="url(#paint2_linear_6_611)"/>
<path d="M10.1055 17.7916L1.13757 12.1307V6.46967L10.1055 12.1307V17.7916Z" fill="url(#paint3_linear_6_611)"/>
<path d="M8.26838 7.77309C8.2222 7.60932 8.15736 7.46463 8.0738 7.339C7.99027 7.21113 7.88803 7.10346 7.76712 7.01597C7.64839 6.92624 7.51209 6.85782 7.35818 6.8107C7.20649 6.76359 7.03831 6.74004 6.85362 6.74004C6.50847 6.74004 6.20507 6.82752 5.94345 7.00252C5.68401 7.17749 5.48175 7.4321 5.33664 7.76636C5.19154 8.09837 5.11899 8.5044 5.11899 8.98447C5.11899 9.46456 5.19045 9.87282 5.33335 10.2093C5.47627 10.5458 5.67853 10.8027 5.94015 10.9799C6.20178 11.1549 6.51067 11.2424 6.86681 11.2424C7.19001 11.2424 7.46591 11.1841 7.69457 11.0674C7.92541 10.9485 8.10129 10.7814 8.2222 10.566C8.34532 10.3507 8.40689 10.096 8.40689 9.80215L8.69709 9.84591H6.95587V8.74892H9.78206V9.61709C9.78206 10.2228 9.65674 10.7432 9.4061 11.1784C9.15548 11.6114 8.81032 11.9456 8.3706 12.1812C7.93091 12.4145 7.42744 12.5311 6.86022 12.5311C6.22706 12.5311 5.67082 12.3887 5.19154 12.1038C4.71226 11.8167 4.33853 11.4095 4.07031 10.8823C3.80429 10.3529 3.67126 9.72476 3.67126 8.99795C3.67126 8.43935 3.75041 7.94133 3.90872 7.50388C4.06922 7.0642 4.29346 6.69181 4.58146 6.38671C4.86946 6.08161 5.20475 5.84944 5.58729 5.69017C5.96982 5.53088 6.38423 5.45126 6.83055 5.45126C7.21308 5.45126 7.56924 5.50845 7.89903 5.62287C8.2288 5.73504 8.52121 5.8943 8.77624 6.10069C9.03345 6.30709 9.24342 6.55273 9.4061 6.83761C9.5688 7.12028 9.67323 7.4321 9.7194 7.77309H8.26838ZM16.8137 7.95817H15.3693C15.3429 7.76747 15.2891 7.59812 15.2077 7.45006C15.1264 7.29975 15.0219 7.17187 14.8944 7.06643C14.7669 6.96101 14.6196 6.88026 14.4525 6.82416C14.2876 6.76809 14.1085 6.74004 13.915 6.74004C13.5654 6.74004 13.2609 6.82866 13.0015 7.00588C12.7421 7.18085 12.5409 7.43658 12.398 7.77309C12.2551 8.10734 12.1837 8.51338 12.1837 8.9912C12.1837 9.48249 12.2551 9.89525 12.398 10.2295C12.5431 10.5638 12.7454 10.8161 13.0048 10.9866C13.2642 11.1571 13.5643 11.2424 13.9051 11.2424C14.0964 11.2424 14.2734 11.2166 14.436 11.165C14.6009 11.1134 14.7471 11.0382 14.8746 10.9395C15.0022 10.8386 15.1077 10.7163 15.1912 10.5727C15.277 10.4292 15.3363 10.2654 15.3693 10.0815L16.8137 10.0882C16.7764 10.4045 16.6829 10.7096 16.5334 11.0035C16.3861 11.2951 16.1872 11.5564 15.9365 11.7875C15.6881 12.0163 15.3913 12.198 15.0461 12.3326C14.7032 12.465 14.3151 12.5311 13.882 12.5311C13.2796 12.5311 12.741 12.3921 12.2661 12.1139C11.7934 11.8357 11.4197 11.4331 11.1449 10.9059C10.8722 10.3787 10.7359 9.74047 10.7359 8.9912C10.7359 8.2397 10.8744 7.60034 11.1515 7.07318C11.4285 6.546 11.8044 6.14444 12.2793 5.86851C12.7542 5.59034 13.2884 5.45126 13.882 5.45126C14.2734 5.45126 14.6361 5.50734 14.9703 5.61951C15.3067 5.73168 15.6046 5.89544 15.864 6.1108C16.1234 6.32391 16.3345 6.58525 16.4972 6.89482C16.662 7.2044 16.7676 7.55884 16.8137 7.95817Z" fill="url(#paint4_linear_6_611)"/>
<path d="M8.2683 7.77308L8.11212 7.81892L8.14595 7.9389H8.2683V7.77308ZM8.07372 7.33899L7.93851 7.43098L7.93888 7.43155L7.93925 7.43212L8.07372 7.33899ZM7.76703 7.01597L7.67029 7.14922L7.67166 7.15024L7.67303 7.15123L7.76703 7.01597ZM7.3581 6.8107L7.31079 6.96934L7.31109 6.96944L7.31141 6.96953L7.3581 6.8107ZM5.94337 7.00251L5.85426 6.86381L5.85401 6.864L5.85375 6.86416L5.94337 7.00251ZM5.33656 7.76635L5.48498 7.83389L5.48508 7.8337L5.48517 7.83351L5.33656 7.76635ZM5.94007 10.9799L5.85018 11.118L5.85057 11.1183L5.85097 11.1186L5.94007 10.9799ZM7.69448 11.0674L7.76715 11.2157L7.76743 11.2156L7.76771 11.2154L7.69448 11.0674ZM8.22212 10.566L8.08175 10.4825L8.08143 10.483L8.0811 10.4836L8.22212 10.566ZM8.40681 9.80215L8.43056 9.63812L8.24429 9.61003V9.80215H8.40681ZM8.69701 9.8459V10.0117L8.72076 9.68185L8.69701 9.8459ZM6.95579 9.8459H6.79327V10.0117H6.95579V9.8459ZM6.95579 8.74892V8.58309H6.79327V8.74892H6.95579ZM9.78198 8.74892H9.9445V8.58309H9.78198V8.74892ZM9.40602 11.1784L9.54596 11.2628L9.54606 11.2626L9.54615 11.2624L9.40602 11.1784ZM8.37052 12.1812L8.44551 12.3283L8.44579 12.3282L8.44607 12.328L8.37052 12.1812ZM5.19146 12.1038L5.10918 12.2468L5.10941 12.2469L5.10967 12.2471L5.19146 12.1038ZM4.07022 10.8823L3.92561 10.958L3.9258 10.9584L3.92598 10.9587L4.07022 10.8823ZM3.90864 7.50387L3.75634 7.446L3.75625 7.44621L3.75618 7.44645L3.90864 7.50387ZM7.89895 5.62286L7.84662 5.77985L7.84708 5.78002L7.84755 5.78018L7.89895 5.62286ZM8.77616 6.10068L8.67516 6.23061L8.67542 6.23083L8.6757 6.23104L8.77616 6.10068ZM9.40602 6.83761L9.2656 6.92109L9.26574 6.92135L9.26588 6.92159L9.40602 6.83761ZM9.71932 7.77308V7.9389H9.90582L9.8803 7.75038L9.71932 7.77308ZM8.42447 7.72724C8.37414 7.54869 8.30247 7.38765 8.20819 7.2459L7.93925 7.43212C8.01206 7.54159 8.07012 7.66996 8.11212 7.81892L8.42447 7.72724ZM8.20893 7.24701C8.11456 7.10255 7.99843 6.9801 7.86104 6.8807L7.67303 7.15123C7.77746 7.2268 7.86582 7.31971 7.93851 7.43098L8.20893 7.24701ZM7.86375 6.88271C7.72868 6.78061 7.57513 6.704 7.40481 6.65186L7.31141 6.96953C7.44888 7.01161 7.56795 7.07185 7.67029 7.14922L7.86375 6.88271ZM7.40542 6.65205C7.2361 6.59948 7.05169 6.57421 6.85354 6.57421V6.90586C7.02476 6.90586 7.17671 6.9277 7.31079 6.96934L7.40542 6.65205ZM6.85354 6.57421C6.48013 6.57421 6.14507 6.66932 5.85426 6.86381L6.03245 7.14119C6.26489 6.98574 6.53664 6.90586 6.85354 6.90586V6.57421ZM5.85375 6.86416C5.56464 7.05917 5.34371 7.34046 5.18798 7.69919L5.48517 7.83351C5.61964 7.52372 5.80323 7.29578 6.03298 7.14083L5.85375 6.86416ZM5.18814 7.69881C5.03129 8.05773 4.95639 8.48824 4.95639 8.98446H5.28142C5.28142 8.52057 5.35165 8.13899 5.48498 7.83389L5.18814 7.69881ZM4.95639 8.98446C4.95639 9.48054 5.03013 9.91259 5.18414 10.2752L5.48238 10.1434C5.35061 9.83306 5.28142 9.44854 5.28142 8.98446H4.95639ZM5.18414 10.2752C5.3377 10.6368 5.55876 10.9206 5.85018 11.118L6.02994 10.8417C5.79812 10.6847 5.61465 10.4548 5.48238 10.1434L5.18414 10.2752ZM5.85097 11.1186C6.14261 11.3136 6.48345 11.4082 6.86673 11.4082V11.0765C6.5377 11.0765 6.26076 10.9961 6.02915 10.8412L5.85097 11.1186ZM6.86673 11.4082C7.20866 11.4082 7.51077 11.3465 7.76715 11.2157L7.62179 10.9191C7.42088 11.0216 7.17119 11.0765 6.86673 11.0765V11.4082ZM7.76771 11.2154C8.02508 11.0829 8.22539 10.8938 8.36314 10.6485L8.0811 10.4836C7.97703 10.669 7.82559 10.8141 7.62126 10.9193L7.76771 11.2154ZM8.36251 10.6496C8.50253 10.4046 8.56932 10.1201 8.56932 9.80215H8.24429C8.24429 10.0719 8.18797 10.2967 8.08175 10.4825L8.36251 10.6496ZM8.38306 9.9662L8.67326 10.01L8.72076 9.68185L8.43056 9.63812L8.38306 9.9662ZM8.69701 9.68008H6.95579V10.0117H8.69701V9.68008ZM7.1183 9.8459V8.74892H6.79327V9.8459H7.1183ZM6.95579 8.91474H9.78198V8.58309H6.95579V8.91474ZM9.61947 8.74892V9.61709H9.9445V8.74892H9.61947ZM9.61947 9.61709C9.61947 10.1992 9.49918 10.6893 9.2659 11.0944L9.54615 11.2624C9.81411 10.7971 9.9445 10.2464 9.9445 9.61709H9.61947ZM9.26609 11.0941C9.03096 11.5003 8.70818 11.813 8.29497 12.0344L8.44607 12.328C8.91227 12.0783 9.27983 11.7225 9.54596 11.2628L9.26609 11.0941ZM8.29555 12.0341C7.88214 12.2534 7.40504 12.3653 6.86013 12.3653V12.697C7.44967 12.697 7.97949 12.5756 8.44551 12.3283L8.29555 12.0341ZM6.86013 12.3653C6.25156 12.3653 5.72437 12.2287 5.27327 11.9605L5.10967 12.2471C5.61713 12.5487 6.20237 12.697 6.86013 12.697V12.3653ZM5.27376 11.9608C4.82213 11.6902 4.46929 11.3068 4.21447 10.8059L3.92598 10.9587C4.2076 11.5122 4.60225 11.9431 5.10918 12.2468L5.27376 11.9608ZM4.21484 10.8066C3.96292 10.3053 3.8337 9.70419 3.8337 8.99794H3.50867C3.50867 9.74532 3.6455 10.4005 3.92561 10.958L4.21484 10.8066ZM3.8337 8.99794C3.8337 8.45517 3.91061 7.97714 4.06108 7.56132L3.75618 7.44645C3.59006 7.90553 3.50867 8.42352 3.50867 8.99794H3.8337ZM4.06091 7.56177C4.21447 7.14109 4.42748 6.78878 4.69841 6.50174L4.46432 6.27167C4.15926 6.59484 3.92378 6.9873 3.75634 7.446L4.06091 7.56177ZM4.69841 6.50174C4.97079 6.21323 5.28713 5.99419 5.64859 5.8437L5.5258 5.53663C5.12218 5.70469 4.76797 5.95001 4.46432 6.27167L4.69841 6.50174ZM5.64859 5.8437C6.01014 5.69317 6.40351 5.61708 6.83046 5.61708V5.28543C6.36481 5.28543 5.92934 5.3686 5.5258 5.53663L5.64859 5.8437ZM6.83046 5.61708C7.19696 5.61708 7.53527 5.67185 7.84662 5.77985L7.95126 5.46587C7.60306 5.34506 7.22906 5.28543 6.83046 5.28543V5.61708ZM7.84755 5.78018C8.1606 5.88664 8.43597 6.03702 8.67516 6.23061L8.87715 5.97077C8.60628 5.75157 8.29685 5.5834 7.95033 5.46554L7.84755 5.78018ZM8.6757 6.23104C8.91703 6.42468 9.11335 6.65449 9.2656 6.92109L9.54645 6.75413C9.3733 6.45095 9.14971 6.18947 8.87661 5.97034L8.6757 6.23104ZM9.26588 6.92159C9.41721 7.18449 9.51495 7.47533 9.55834 7.79577L9.8803 7.75038C9.83136 7.38888 9.72023 7.05605 9.54615 6.75363L9.26588 6.92159ZM9.71932 7.60725H8.2683V7.9389H9.71932V7.60725ZM16.8137 7.95816V8.12399H16.9965L16.9751 7.93872L16.8137 7.95816ZM15.3692 7.95816L15.2083 7.98133L15.2281 8.12399H15.3692V7.95816ZM15.2076 7.45005L15.0654 7.53021L15.0656 7.53067L15.0659 7.53114L15.2076 7.45005ZM14.4524 6.82415L14.4011 6.98147L14.4014 6.98157L14.4017 6.98169L14.4524 6.82415ZM13.0014 7.00587L13.0911 7.1442L13.0914 7.14394L13.0918 7.14365L13.0014 7.00587ZM12.3979 7.77308L12.5469 7.83939L12.547 7.8392L12.547 7.83901L12.3979 7.77308ZM12.3979 10.2295L12.249 10.2958L12.2492 10.2962L12.2493 10.2967L12.3979 10.2295ZM14.436 11.165L14.3883 11.0064L14.388 11.0065L14.3877 11.0066L14.436 11.165ZM14.8746 10.9395L14.9728 11.0716L14.9735 11.0711L14.9742 11.0705L14.8746 10.9395ZM15.1912 10.5727L15.0524 10.4864L15.0519 10.4873L15.0514 10.4881L15.1912 10.5727ZM15.3692 10.0814L15.37 9.91562L15.2339 9.91498L15.2094 10.0516L15.3692 10.0814ZM16.8137 10.0882L16.975 10.108L16.9968 9.9232L16.8144 9.92235L16.8137 10.0882ZM16.5333 11.0035L16.3891 10.9271L16.389 10.9273L16.3889 10.9275L16.5333 11.0035ZM15.9365 11.7875L16.0453 11.9106L16.0454 11.9105L15.9365 11.7875ZM15.0461 12.3326L15.1035 12.4877L15.1038 12.4876L15.1041 12.4875L15.0461 12.3326ZM12.266 12.1139L12.1848 12.2575L12.1851 12.2577L12.266 12.1139ZM11.1448 10.9059L11.001 10.9833L11.0012 10.9835L11.0013 10.9838L11.1448 10.9059ZM12.2792 5.8685L12.3596 6.0126L12.3599 6.01246L12.3601 6.01232L12.2792 5.8685ZM14.9702 5.6195L14.9194 5.77701L14.9197 5.77713L14.9702 5.6195ZM15.8639 6.11079L15.7613 6.23943L15.7617 6.23969L15.762 6.23995L15.8639 6.11079ZM16.4971 6.89482L16.3539 6.97318L16.3541 6.97359L16.3543 6.97401L16.4971 6.89482ZM16.8137 7.79234H15.3692V8.12399H16.8137V7.79234ZM15.5301 7.93497C15.5013 7.72665 15.4418 7.53718 15.3494 7.36896L15.0659 7.53114C15.1361 7.65901 15.1844 7.80828 15.2083 7.98133L15.5301 7.93497ZM15.3499 7.36989C15.2587 7.20136 15.1409 7.05683 14.9967 6.9376L14.792 7.19527C14.9029 7.28693 14.9939 7.39812 15.0654 7.53021L15.3499 7.36989ZM14.9967 6.9376C14.8528 6.81861 14.6877 6.72854 14.5032 6.66664L14.4017 6.98169C14.5514 7.03193 14.6809 7.1034 14.792 7.19527L14.9967 6.9376ZM14.5038 6.66683C14.3206 6.60453 14.1239 6.57421 13.9149 6.57421V6.90586C14.0929 6.90586 14.2545 6.93163 14.4011 6.98147L14.5038 6.66683ZM13.9149 6.57421C13.5372 6.57421 13.2003 6.67043 12.911 6.86807L13.0918 7.14365C13.3214 6.98685 13.5935 6.90586 13.9149 6.90586V6.57421ZM12.9118 6.86753C12.6222 7.06287 12.4022 7.34584 12.2488 7.70715L12.547 7.83901C12.6794 7.52732 12.8618 7.29882 13.0911 7.1442L12.9118 6.86753ZM12.249 7.70677C12.0948 8.06735 12.0211 8.49731 12.0211 8.99119H12.3461C12.3461 8.52943 12.4152 8.14732 12.5469 7.83939L12.249 7.70677ZM12.0211 8.99119C12.0211 9.49781 12.0946 9.93474 12.249 10.2958L12.5469 10.1632C12.4155 9.85578 12.3461 9.46716 12.3461 8.99119H12.0211ZM12.2493 10.2967C12.4052 10.6557 12.6265 10.9353 12.9167 11.126L13.0927 10.8472C12.8641 10.6969 12.6809 10.4719 12.5465 10.1623L12.2493 10.2967ZM12.9167 11.126C13.2051 11.3155 13.5364 11.4082 13.905 11.4082V11.0765C13.5921 11.0765 13.3232 10.9987 13.0927 10.8472L12.9167 11.126ZM13.905 11.4082C14.1107 11.4082 14.3041 11.3804 14.4842 11.3233L14.3877 11.0066C14.2424 11.0527 14.0819 11.0765 13.905 11.0765V11.4082ZM14.4836 11.3235C14.6653 11.2667 14.8289 11.183 14.9728 11.0716L14.7764 10.8074C14.6652 10.8934 14.5364 10.9601 14.3883 11.0064L14.4836 11.3235ZM14.9742 11.0705C15.118 10.9567 15.2371 10.8186 15.3309 10.6574L15.0514 10.4881C14.9781 10.614 14.8861 10.7205 14.7749 10.8085L14.9742 11.0705ZM15.3299 10.659C15.4271 10.4963 15.4929 10.313 15.5291 10.1113L15.2094 10.0516C15.1796 10.2178 15.1267 10.362 15.0524 10.4864L15.3299 10.659ZM15.3685 10.2473L16.8129 10.254L16.8144 9.92235L15.37 9.91562L15.3685 10.2473ZM16.6523 10.0683C16.6174 10.3641 16.53 10.6501 16.3891 10.9271L16.6776 11.0799C16.8357 10.769 16.9352 10.4448 16.975 10.108L16.6523 10.0683ZM16.3889 10.9275C16.251 11.2005 16.0644 11.4461 15.8275 11.6644L16.0454 11.9105C16.3098 11.6668 16.5211 11.3897 16.6778 11.0794L16.3889 10.9275ZM15.8276 11.6644C15.5955 11.8781 15.3164 12.0497 14.988 12.1777L15.1041 12.4875C15.466 12.3464 15.7806 12.1545 16.0453 11.9106L15.8276 11.6644ZM14.9886 12.1775C14.667 12.3016 14.2989 12.3653 13.8819 12.3653V12.697C14.3312 12.697 14.7392 12.6283 15.1035 12.4877L14.9886 12.1775ZM13.8819 12.3653C13.305 12.3653 12.7948 12.2324 12.3469 11.9701L12.1851 12.2577C12.687 12.5517 13.2541 12.697 13.8819 12.697V12.3653ZM12.3472 11.9702C11.9029 11.7087 11.5498 11.3298 11.2883 10.828L11.0013 10.9838C11.2893 11.5363 11.6838 11.9627 12.1848 12.2575L12.3472 11.9702ZM11.2885 10.8285C11.031 10.3305 10.8984 9.72028 10.8984 8.99119H10.5733C10.5733 9.76064 10.7133 10.4269 11.001 10.9833L11.2885 10.8285ZM10.8984 8.99119C10.8984 8.26016 11.0331 7.64921 11.2946 7.15152L11.0082 6.99481C10.7156 7.55149 10.5733 8.21922 10.5733 8.99119H10.8984ZM11.2946 7.15152C11.5583 6.64977 11.9133 6.27195 12.3596 6.0126L12.1988 5.7244C11.6954 6.01691 11.2985 6.44221 11.0082 6.99481L11.2946 7.15152ZM12.3601 6.01232C12.8083 5.74977 13.3143 5.61708 13.8819 5.61708V5.28543C13.2624 5.28543 12.6999 5.43091 12.1983 5.7247L12.3601 6.01232ZM13.8819 5.61708C14.2579 5.61708 14.6034 5.67093 14.9194 5.77701L15.021 5.46196C14.6687 5.34373 14.2886 5.28543 13.8819 5.28543V5.61708ZM14.9197 5.77713C15.2382 5.88333 15.5183 6.03764 15.7613 6.23943L15.9665 5.98216C15.6907 5.75323 15.3749 5.57998 15.0207 5.46187L14.9197 5.77713ZM15.762 6.23995C16.0039 6.43866 16.2011 6.68251 16.3539 6.97318L16.6403 6.81645C16.4677 6.48798 16.2428 6.20913 15.9658 5.98162L15.762 6.23995ZM16.3543 6.97401C16.508 7.26262 16.6082 7.59628 16.6523 7.97759L16.9751 7.93872C16.9268 7.5214 16.8159 7.14616 16.6399 6.81565L16.3543 6.97401Z" fill="#E9E4E4"/>
</g>
<g clip-path="url(#clip1_6_611)">
<path fill-rule="evenodd" clip-rule="evenodd" d="M28.3711 14.3875H29.8146V9.65984V8.41951V4.0867H28.3711V14.3875ZM31.3441 9.65984V8.41951L33.9397 4.0867H35.5289L32.535 8.97432V9.00352L35.7176 14.3875H34.0854L31.3441 9.65984ZM45.3544 4.0867L43.3418 11.6441C43.2507 12.0049 43.178 12.3702 43.1239 12.7384H43.0947C43.0516 12.3704 42.9881 12.0051 42.9046 11.6441L41.0822 4.0867H39.5957L42.2189 14.3875H43.8956L45.675 7.71313C45.8499 7.05682 45.9803 6.25449 45.9803 6.25449H46.0095C46.0095 6.25449 46.1483 7.05682 46.3162 7.71313L48.0942 14.3875H49.7709L52.4677 4.0867H50.9798L49.0852 11.6441C48.9939 12.0034 48.9307 12.3693 48.8965 12.7384H48.8673C48.8673 12.7384 48.7938 12.2128 48.648 11.6441L46.6369 4.0867H45.3544ZM63.6257 14.3875H57.3978V4.0867H63.3744V5.33815H58.8413V8.56551H62.5292V9.81696H58.8413V13.1361H63.6257V14.3875ZM68.8195 14.3875H70.2616V7.71313C70.2616 7.12912 70.1603 6.21 70.1603 6.21H70.1894C70.1894 6.21 70.6696 7.14442 71.0486 7.71313L75.6372 14.3875H77.0502V4.0867H75.6081V10.7834C75.6081 11.3521 75.7094 12.2712 75.7094 12.2712H75.6802C75.6802 12.2712 75.2 11.3382 74.8211 10.7834L70.2435 4.0867H68.8153L68.8195 14.3875ZM86.5564 14.3875H85.1129V5.34928H81.5819V4.09782H90.0805V5.34928H86.5522L86.5564 14.3875ZM100.124 14.3875H101.626L97.9198 4.0867H96.4027L92.701 14.3875H94.1875L95.1924 11.4675L95.5866 10.2272L96.7386 6.95948C96.9135 6.43387 97.1467 5.50084 97.1467 5.50084H97.1758C97.1758 5.50084 97.3951 6.43387 97.57 6.95948L98.7067 10.2272L99.0982 11.4675L100.124 14.3875Z" fill="#C3C0BA"/>
<path d="M110.982 10.1729H113.908V10.312C113.907 10.5393 113.889 10.7661 113.852 10.9905C113.802 11.259 113.723 11.5211 113.615 11.772C113.502 12.0504 113.345 12.3087 113.15 12.5368C112.926 12.7766 112.65 12.9625 112.344 13.0805C111.954 13.2359 111.537 13.3115 111.118 13.3029C110.094 13.3029 109.301 12.9247 108.759 12.1766C108.216 11.4285 107.941 10.4399 107.941 9.25658C107.941 8.03015 108.219 7.03177 108.774 6.28229C109.329 5.53281 110.113 5.15598 111.094 5.15598C111.879 5.15598 112.474 5.36595 112.864 5.77893C113.245 6.17296 113.499 6.67237 113.593 7.21254V7.24591L114.981 7.05402V7.01926C114.941 6.76474 114.877 6.51467 114.789 6.27256C114.68 5.98438 114.535 5.71146 114.356 5.4605C114.16 5.17358 113.92 4.91888 113.646 4.70546C113.323 4.46812 112.963 4.28755 112.58 4.17151C112.115 4.02635 111.63 3.95457 111.143 3.95876C109.694 3.95876 108.548 4.44961 107.733 5.41601C106.918 6.38241 106.514 7.66584 106.514 9.24267C106.514 10.7847 106.914 12.0626 107.704 13.0415C108.493 14.0204 109.568 14.5155 110.918 14.5155C111.597 14.5298 112.266 14.352 112.849 14.0024C113.333 13.7093 113.719 13.2792 113.959 12.7662L114.131 14.2749H115.167V8.97709H110.982V10.1729Z" fill="#C3C0BA"/>
<path d="M126.64 10.832V10.8654C126.536 11.5387 126.213 12.1588 125.721 12.6286C125.241 13.0635 124.611 13.2952 123.964 13.2751C122.992 13.2751 122.236 12.8941 121.705 12.1419C121.175 11.3896 120.903 10.394 120.903 9.19402C120.903 7.99401 121.181 6.99007 121.705 6.26283C122.23 5.5356 122.985 5.1699 123.936 5.1699C124.683 5.1699 125.286 5.39377 125.74 5.83595C126.194 6.27813 126.465 6.88995 126.573 7.6436V7.67698L128.007 7.52819V7.49343C127.868 6.41023 127.468 5.54673 126.799 4.90709C126.13 4.26746 125.182 3.95877 124.003 3.95877C122.544 3.95877 121.404 4.44128 120.613 5.39516C119.822 6.34905 119.422 7.6297 119.422 9.20792C119.422 10.75 119.811 12.0334 120.577 13.0221C121.343 14.0107 122.483 14.5155 123.96 14.5155C125.098 14.5155 126.012 14.1984 126.677 13.5755C127.342 12.9525 127.788 12.121 127.989 11.1046V11.0698L126.64 10.832Z" fill="#C3C0BA"/>
</g>
<defs>
<linearGradient id="paint0_linear_6_611" x1="27.1413" y1="5.68683" x2="4.46696" y2="5.68683" gradientUnits="userSpaceOnUse">
<stop stop-color="#996939"/>
<stop offset="1" stop-color="#D0A875"/>
</linearGradient>
<linearGradient id="paint1_linear_6_611" x1="14.7029" y1="17.7916" x2="17.0449" y2="-3.85289" gradientUnits="userSpaceOnUse">
<stop stop-color="#272728"/>
<stop offset="1" stop-color="#4B4B4B"/>
</linearGradient>
<linearGradient id="paint2_linear_6_611" x1="10.1609" y1="2.34468" x2="0.970494" y2="9.37382" gradientUnits="userSpaceOnUse">
<stop stop-color="#996939"/>
<stop offset="1" stop-color="#D0A875"/>
</linearGradient>
<linearGradient id="paint3_linear_6_611" x1="5.62153" y1="17.7916" x2="5.62153" y2="6.46967" gradientUnits="userSpaceOnUse">
<stop stop-color="#363636"/>
<stop offset="1" stop-color="#333232"/>
</linearGradient>
<linearGradient id="paint4_linear_6_611" x1="10.2268" y1="3.26914" x2="10.2268" y2="13.8109" gradientUnits="userSpaceOnUse">
<stop stop-color="#BE9461"/>
<stop offset="0.375" stop-color="#B18553"/>
<stop offset="1" stop-color="#9C6C3C"/>
</linearGradient>
<clipPath id="clip0_6_611">
<rect width="20.4536" height="17.8144" fill="white"/>
</clipPath>
<clipPath id="clip1_6_611">
<rect width="99.6289" height="10.5567" fill="white" transform="translate(28.3711 3.95877)"/>
</clipPath>
</defs>
</svg>
