<svg width="207" height="50" viewBox="0 0 207 50" fill="none" xmlns="http://www.w3.org/2000/svg">
<path opacity="0.3" fill-rule="evenodd" clip-rule="evenodd" d="M15.7572 12.1394L15.5098 12.0006L15.2637 12.1418L1.01284 20.3206L0.761719 20.4647V20.7542V20.9585V21.8164V28.933V29.7964V29.8889V30.1785L1.01284 30.3226L15.2637 38.5014L15.5098 38.6426L15.7572 38.5038L30.3344 30.325L30.5897 30.1817V29.8889V29.7868V28.933V21.8164V20.968V20.7542V20.4614L30.3344 20.3182L15.7572 12.1394ZM29.5897 21.5218V21.047L15.5153 13.1504L1.76172 21.0438V21.525L7.50065 24.7759L15.2637 20.3206L15.5098 20.1793L15.7572 20.3182L23.7079 24.779L29.5897 21.5218ZM22.6793 25.3486L15.5153 21.3291L8.5117 25.3486L15.5153 29.3159L22.6793 25.3486ZM7.50388 25.927L15.2661 30.324L15.5098 30.462L15.7548 30.3264L23.7047 25.9239L29.5897 29.2258V29.5962L15.5153 37.4928L1.76172 29.5994V29.2225L7.50388 25.927ZM6.49282 25.3543L1.76172 22.6743V28.0695L6.49282 25.3543ZM29.5897 28.0791L24.7332 25.3543L29.5897 22.6649V28.0791Z" fill="url(#paint0_linear_6_39)"/>
<path opacity="0.3" fill-rule="evenodd" clip-rule="evenodd" d="M73.2423 38.5037L73.4898 38.6425L73.7358 38.5013L87.9867 30.3225L88.2378 30.1784L88.2378 29.8888L88.2378 29.6845L88.2378 28.8267L88.2378 21.7101L88.2378 20.8466L88.2378 20.7541L88.2378 20.4646L87.9867 20.3205L73.7358 12.1417L73.4898 12.0005L73.2423 12.1393L58.6651 20.3181L58.4098 20.4613L58.4098 20.7541L58.4098 20.8562L58.4098 21.7101L58.4098 28.8266L58.4098 29.6751L58.4098 29.8888L58.4098 30.1816L58.6651 30.3249L73.2423 38.5037ZM59.4098 29.1213L59.4098 29.5961L73.4842 37.4927L87.2378 29.5993L87.2378 29.1181L81.4989 25.8672L73.7358 30.3225L73.4898 30.4637L73.2423 30.3249L65.2916 25.8641L59.4098 29.1213ZM66.3202 25.2945L73.4842 29.314L80.4878 25.2945L73.4842 21.3272L66.3202 25.2945ZM81.4956 24.7161L73.7334 20.3191L73.4897 20.181L73.2447 20.3167L65.2948 24.7192L59.4098 21.4173L59.4098 21.0469L73.4842 13.1503L87.2378 21.0437L87.2378 21.4206L81.4956 24.7161ZM82.5067 25.2888L87.2378 27.9688L87.2378 22.5735L82.5067 25.2888ZM59.4098 22.5639L64.2663 25.2888L59.4098 27.9782L59.4098 22.5639Z" fill="url(#paint1_linear_6_39)"/>
<g filter="url(#filter0_f_6_39)">
<path d="M44.3374 12.5199L30.0865 20.6987V28.8774L44.3374 20.6987L58.9146 28.8774V20.6987L44.3374 12.5199Z" stroke="url(#paint2_linear_6_39)" stroke-miterlimit="10"/>
<path d="M58.9146 21.7609L44.3374 29.8334L30.0865 21.7609V29.8334L44.3374 38.0121L58.9146 29.8334V21.7609Z" stroke="#C9975A" stroke-miterlimit="10"/>
</g>
<g opacity="0.25" filter="url(#filter1_f_6_39)">
<path d="M44.3374 12.5199L30.0865 20.6987V28.8774L44.3374 20.6987L58.9146 28.8774V20.6987L44.3374 12.5199Z" stroke="url(#paint3_linear_6_39)" stroke-miterlimit="10"/>
<path d="M58.9146 21.7609L44.3374 29.8334L30.0865 21.7609V29.8334L44.3374 38.0121L58.9146 29.8334V21.7609Z" stroke="#C9975A" stroke-miterlimit="10"/>
</g>
<path d="M44.3374 12.5199L30.0865 20.6987V28.8774L44.3374 20.6987L58.9146 28.8774V20.6987L44.3374 12.5199Z" stroke="url(#paint4_linear_6_39)" stroke-miterlimit="10"/>
<path d="M58.9146 21.7609L44.3374 29.8334L30.0865 21.7609V29.8334L44.3374 38.0121L58.9146 29.8334V21.7609Z" stroke="#C9975A" stroke-miterlimit="10"/>
<g filter="url(#filter2_f_6_39)">
<path d="M21.686 16.0486L30.0561 20.7285L34.8425 17.9623" stroke="url(#paint5_linear_6_39)" stroke-miterlimit="10"/>
</g>
<g filter="url(#filter3_f_6_39)">
<path d="M67.2549 16.0486L58.8849 20.7285L54.0984 17.9623" stroke="url(#paint6_linear_6_39)" stroke-miterlimit="10"/>
</g>
<g filter="url(#filter4_f_6_39)">
<path d="M21.686 34.5664L30.0561 29.8865L34.8425 32.6527" stroke="url(#paint7_linear_6_39)" stroke-miterlimit="10"/>
</g>
<g filter="url(#filter5_f_6_39)">
<path d="M67.2549 34.5664L58.8849 29.8865L54.0984 32.6527" stroke="url(#paint8_linear_6_39)" stroke-miterlimit="10"/>
</g>
<g clip-path="url(#clip0_6_39)">
<path d="M84.0747 18H82V32H84.0747V18Z" fill="white"/>
<path d="M87.9942 24.6454L92.2922 18H90.008L86.2777 23.8891V25.5774L90.2175 32H92.5625L87.9942 24.686V24.6454Z" fill="white"/>
<path d="M111.782 28.2721C111.651 28.759 111.56 29.256 111.511 29.7578H111.471C111.39 29.2575 111.284 28.7616 111.153 28.2721L108.261 18H106.416L103.524 28.2721C103.393 28.7612 103.289 29.2572 103.213 29.7578H103.172C103.107 29.2579 103.015 28.7619 102.895 28.2721L100.28 18H98.1377L101.909 32H104.301L106.882 22.9165C107.132 22.0251 107.322 20.9378 107.322 20.9378H107.362C107.362 20.9378 107.551 22.0251 107.801 22.9165L110.383 32H112.795L116.647 18H114.505L111.782 28.2721Z" fill="white"/>
<path d="M124.46 25.7935H129.758V24.0917H124.46V19.7086H130.974V18H122.385V32H131.332V30.2914H124.46V25.7935Z" fill="white"/>
<path d="M146.538 27.1037C146.538 27.8736 146.686 29.1298 146.686 29.1298H146.646C146.646 29.1298 145.97 27.8601 145.409 27.1037L138.827 18H136.799V32H138.874V22.9165C138.874 22.1264 138.725 20.8905 138.725 20.8905H138.766C138.766 20.8905 139.442 22.1602 140.003 22.9165L146.605 32H148.632V18H146.538V27.1037Z" fill="white"/>
<path d="M154.451 19.7086H159.526V32H161.601V19.7086H166.676V18H154.451V19.7086Z" fill="white"/>
<path d="M174.502 18H172.427V32H174.502V18Z" fill="white"/>
<path d="M179.989 20.1881H188.132C188.748 20.1726 189.362 20.1184 189.97 20.026V20.0801C189.338 20.5618 188.734 21.0781 188.159 21.6266L179.989 29.8321V32H192.511V29.8051H184.402C183.788 29.8277 183.176 29.8886 182.57 29.9875V29.9402C182.57 29.9402 183.706 29.0757 184.402 28.3936L192.511 20.1409V18H179.989V20.1881Z" fill="white"/>
<path d="M200.127 30.2914V25.7935H205.425V24.0917H200.127V19.7086H206.642V18H198.053V32H207V30.2914H200.127Z" fill="white"/>
</g>
<defs>
<filter id="filter0_f_6_39" x="18.5865" y="0.945038" width="51.828" height="48.642" filterUnits="userSpaceOnUse" color-interpolation-filters="sRGB">
<feFlood flood-opacity="0" result="BackgroundImageFix"/>
<feBlend mode="normal" in="SourceGraphic" in2="BackgroundImageFix" result="shape"/>
<feGaussianBlur stdDeviation="5.5" result="effect1_foregroundBlur_6_39"/>
</filter>
<filter id="filter1_f_6_39" x="18.5865" y="0.945038" width="51.828" height="48.642" filterUnits="userSpaceOnUse" color-interpolation-filters="sRGB">
<feFlood flood-opacity="0" result="BackgroundImageFix"/>
<feBlend mode="normal" in="SourceGraphic" in2="BackgroundImageFix" result="shape"/>
<feGaussianBlur stdDeviation="5.5" result="effect1_foregroundBlur_6_39"/>
</filter>
<filter id="filter2_f_6_39" x="17.442" y="11.6122" width="21.6508" height="13.6914" filterUnits="userSpaceOnUse" color-interpolation-filters="sRGB">
<feFlood flood-opacity="0" result="BackgroundImageFix"/>
<feBlend mode="normal" in="SourceGraphic" in2="BackgroundImageFix" result="shape"/>
<feGaussianBlur stdDeviation="2" result="effect1_foregroundBlur_6_39"/>
</filter>
<filter id="filter3_f_6_39" x="49.8481" y="11.6122" width="21.6508" height="13.6914" filterUnits="userSpaceOnUse" color-interpolation-filters="sRGB">
<feFlood flood-opacity="0" result="BackgroundImageFix"/>
<feBlend mode="normal" in="SourceGraphic" in2="BackgroundImageFix" result="shape"/>
<feGaussianBlur stdDeviation="2" result="effect1_foregroundBlur_6_39"/>
</filter>
<filter id="filter4_f_6_39" x="17.442" y="25.3114" width="21.6508" height="13.6914" filterUnits="userSpaceOnUse" color-interpolation-filters="sRGB">
<feFlood flood-opacity="0" result="BackgroundImageFix"/>
<feBlend mode="normal" in="SourceGraphic" in2="BackgroundImageFix" result="shape"/>
<feGaussianBlur stdDeviation="2" result="effect1_foregroundBlur_6_39"/>
</filter>
<filter id="filter5_f_6_39" x="49.8481" y="25.3114" width="21.6508" height="13.6914" filterUnits="userSpaceOnUse" color-interpolation-filters="sRGB">
<feFlood flood-opacity="0" result="BackgroundImageFix"/>
<feBlend mode="normal" in="SourceGraphic" in2="BackgroundImageFix" result="shape"/>
<feGaussianBlur stdDeviation="2" result="effect1_foregroundBlur_6_39"/>
</filter>
<linearGradient id="paint0_linear_6_39" x1="30.3618" y1="25.0537" x2="8.03467" y2="25.0537" gradientUnits="userSpaceOnUse">
<stop stop-color="#C9975A"/>
<stop offset="1" stop-color="#C9975A" stop-opacity="0"/>
</linearGradient>
<linearGradient id="paint1_linear_6_39" x1="58.6377" y1="25.5894" x2="81.0997" y2="25.5894" gradientUnits="userSpaceOnUse">
<stop stop-color="#C9975A"/>
<stop offset="1" stop-color="#C9975A" stop-opacity="0"/>
</linearGradient>
<linearGradient id="paint2_linear_6_39" x1="44.5006" y1="-4.91222" x2="44.5006" y2="28.8774" gradientUnits="userSpaceOnUse">
<stop stop-color="#02E1FF"/>
<stop offset="1" stop-color="#C9975A"/>
</linearGradient>
<linearGradient id="paint3_linear_6_39" x1="44.5006" y1="-4.91222" x2="44.5006" y2="28.8774" gradientUnits="userSpaceOnUse">
<stop stop-color="#02E1FF"/>
<stop offset="1" stop-color="#C9975A"/>
</linearGradient>
<linearGradient id="paint4_linear_6_39" x1="44.5006" y1="-4.91222" x2="44.5006" y2="28.8774" gradientUnits="userSpaceOnUse">
<stop stop-color="#02E1FF"/>
<stop offset="1" stop-color="#C9975A"/>
</linearGradient>
<linearGradient id="paint5_linear_6_39" x1="30.9199" y1="16.0486" x2="30.7305" y2="20.7284" gradientUnits="userSpaceOnUse">
<stop stop-color="#8EEBD8" stop-opacity="0"/>
<stop offset="1" stop-color="#8AFFE7"/>
</linearGradient>
<linearGradient id="paint6_linear_6_39" x1="58.021" y1="16.0486" x2="58.2104" y2="20.7284" gradientUnits="userSpaceOnUse">
<stop stop-color="#8EEBD8" stop-opacity="0"/>
<stop offset="1" stop-color="#8AFFE7"/>
</linearGradient>
<linearGradient id="paint7_linear_6_39" x1="30.9199" y1="34.5664" x2="30.7305" y2="29.8865" gradientUnits="userSpaceOnUse">
<stop stop-color="#C9975A" stop-opacity="0"/>
<stop offset="1" stop-color="#F5B464"/>
</linearGradient>
<linearGradient id="paint8_linear_6_39" x1="58.021" y1="34.5664" x2="58.2104" y2="29.8865" gradientUnits="userSpaceOnUse">
<stop stop-color="#C9975A" stop-opacity="0"/>
<stop offset="1" stop-color="#F5B464"/>
</linearGradient>
<clipPath id="clip0_6_39">
<rect width="125" height="14" fill="white" transform="translate(82 18)"/>
</clipPath>
</defs>
</svg>
