<svg width="323" height="119" viewBox="0 0 323 119" fill="none" xmlns="http://www.w3.org/2000/svg">
<path opacity="0.3" fill-rule="evenodd" clip-rule="evenodd" d="M53.7896 12.1391L53.5422 12.0003L53.2961 12.1415L0.251118 42.5848L0 42.7289V43.0184V46.1143V46.9722V73.4617V74.3251V77.02V77.3096L0.251118 77.4537L53.2961 107.897L53.5422 108.038L53.7896 107.899L108.049 77.4561L108.305 77.3128V77.02V74.3155V73.4617V46.9722V46.1237V43.0184V42.7257L108.049 42.5824L53.7896 12.1391ZM107.305 46.6775V43.3112L53.5477 13.1501L1 43.308V46.6807L23.7272 59.5548L53.2961 42.5848L53.5422 42.4436L53.7896 42.5824L84.0455 59.5579L107.305 46.6775ZM83.017 60.1275L53.5477 43.5933L24.7382 60.1275L53.5477 76.447L83.017 60.1275ZM23.7304 60.7059L53.2985 77.4551L53.5422 77.5931L53.7872 77.4574L84.0423 60.7028L107.305 73.7545V76.7272L53.5477 106.888L1 76.7305V73.7512L23.7304 60.7059ZM22.7193 60.1332L1 47.83V72.5982L22.7193 60.1332ZM107.305 72.6078L85.0709 60.1332L107.305 47.8206V72.6078Z" fill="url(#paint0_linear_123_38)"/>
<path opacity="0.3" fill-rule="evenodd" clip-rule="evenodd" d="M269.1 107.899L269.347 108.038L269.593 107.897L322.638 77.4534L322.889 77.3093L322.889 77.0198L322.889 46.5765L322.889 45.7131L322.889 43.0182L322.889 42.7286L322.638 42.5845L269.593 12.1413L269.347 12L269.1 12.1389L214.84 42.5821L214.585 42.7254L214.585 43.0182L214.585 45.7227L214.585 46.5765L214.585 73.066L214.585 73.9145L214.585 77.0198L214.585 77.3125L214.84 77.4558L269.1 107.899ZM215.585 73.3607L215.585 76.727L269.342 106.888L321.889 76.7302L321.889 73.3575L299.162 60.4834L269.593 77.4534L269.347 77.5947L269.1 77.4558L238.844 60.4803L215.585 73.3607ZM239.872 59.9107L269.342 76.4449L298.151 59.9107L269.342 43.5912L239.872 59.9107ZM299.159 59.3323L269.591 42.5831L269.347 42.4451L269.102 42.5808L238.847 59.3354L215.585 46.2837L215.585 43.3109L269.342 13.1498L321.889 43.3077L321.889 46.287L299.159 59.3323ZM300.17 59.905L321.889 72.2082L321.889 47.44L300.17 59.905ZM215.585 47.4304L237.819 59.905L215.585 72.2176L215.585 47.4304Z" fill="url(#paint1_linear_123_38)"/>
<g filter="url(#filter0_f_123_38)">
<path d="M160.838 12.3685L107.793 42.8118V73.255L160.838 42.8118L215.098 73.255V42.8118L160.838 12.3685Z" stroke="url(#paint2_linear_123_38)" stroke-miterlimit="10"/>
<path d="M215.098 46.7655L160.838 76.8134L107.793 46.7655V76.8134L160.838 107.257L215.098 76.8134V46.7655Z" stroke="#C9975A" stroke-miterlimit="10"/>
</g>
<g opacity="0.25" filter="url(#filter1_f_123_38)">
<path d="M160.838 12.3685L107.793 42.8118V73.255L160.838 42.8118L215.098 73.255V42.8118L160.838 12.3685Z" stroke="url(#paint3_linear_123_38)" stroke-miterlimit="10"/>
<path d="M215.098 46.7655L160.838 76.8134L107.793 46.7655V76.8134L160.838 107.257L215.098 76.8134V46.7655Z" stroke="#C9975A" stroke-miterlimit="10"/>
</g>
<path d="M160.838 12.3685L107.793 42.8118V73.255L160.838 42.8118L215.098 73.255V42.8118L160.838 12.3685Z" stroke="url(#paint4_linear_123_38)" stroke-miterlimit="10"/>
<path d="M215.098 46.7655L160.838 76.8134L107.793 46.7655V76.8134L160.838 107.257L215.098 76.8134V46.7655Z" stroke="#C9975A" stroke-miterlimit="10"/>
<g filter="url(#filter2_f_123_38)">
<path d="M76.5325 25.503L107.688 42.9226L125.504 32.6263" stroke="url(#paint5_linear_123_38)" stroke-miterlimit="10"/>
</g>
<g filter="url(#filter3_f_123_38)">
<path d="M246.156 25.503L215 42.9226L197.184 32.6263" stroke="url(#paint6_linear_123_38)" stroke-miterlimit="10"/>
</g>
<g filter="url(#filter4_f_123_38)">
<path d="M76.5325 94.4305L107.688 77.0109L125.504 87.3072" stroke="url(#paint7_linear_123_38)" stroke-miterlimit="10"/>
</g>
<g filter="url(#filter5_f_123_38)">
<path d="M246.156 94.4305L215 77.0109L197.184 87.3072" stroke="url(#paint8_linear_123_38)" stroke-miterlimit="10"/>
</g>
<defs>
<filter id="filter0_f_123_38" x="96.2932" y="0.79364" width="130.305" height="118.038" filterUnits="userSpaceOnUse" color-interpolation-filters="sRGB">
<feFlood flood-opacity="0" result="BackgroundImageFix"/>
<feBlend mode="normal" in="SourceGraphic" in2="BackgroundImageFix" result="shape"/>
<feGaussianBlur stdDeviation="5.5" result="effect1_foregroundBlur_123_38"/>
</filter>
<filter id="filter1_f_123_38" x="96.2932" y="0.79364" width="130.305" height="118.038" filterUnits="userSpaceOnUse" color-interpolation-filters="sRGB">
<feFlood flood-opacity="0" result="BackgroundImageFix"/>
<feBlend mode="normal" in="SourceGraphic" in2="BackgroundImageFix" result="shape"/>
<feGaussianBlur stdDeviation="5.5" result="effect1_foregroundBlur_123_38"/>
</filter>
<filter id="filter2_f_123_38" x="72.2886" y="21.0666" width="57.4656" height="26.4312" filterUnits="userSpaceOnUse" color-interpolation-filters="sRGB">
<feFlood flood-opacity="0" result="BackgroundImageFix"/>
<feBlend mode="normal" in="SourceGraphic" in2="BackgroundImageFix" result="shape"/>
<feGaussianBlur stdDeviation="2" result="effect1_foregroundBlur_123_38"/>
</filter>
<filter id="filter3_f_123_38" x="192.934" y="21.0666" width="57.4656" height="26.4312" filterUnits="userSpaceOnUse" color-interpolation-filters="sRGB">
<feFlood flood-opacity="0" result="BackgroundImageFix"/>
<feBlend mode="normal" in="SourceGraphic" in2="BackgroundImageFix" result="shape"/>
<feGaussianBlur stdDeviation="2" result="effect1_foregroundBlur_123_38"/>
</filter>
<filter id="filter4_f_123_38" x="72.2886" y="72.4358" width="57.4656" height="26.4312" filterUnits="userSpaceOnUse" color-interpolation-filters="sRGB">
<feFlood flood-opacity="0" result="BackgroundImageFix"/>
<feBlend mode="normal" in="SourceGraphic" in2="BackgroundImageFix" result="shape"/>
<feGaussianBlur stdDeviation="2" result="effect1_foregroundBlur_123_38"/>
</filter>
<filter id="filter5_f_123_38" x="192.934" y="72.4358" width="57.4656" height="26.4312" filterUnits="userSpaceOnUse" color-interpolation-filters="sRGB">
<feFlood flood-opacity="0" result="BackgroundImageFix"/>
<feBlend mode="normal" in="SourceGraphic" in2="BackgroundImageFix" result="shape"/>
<feGaussianBlur stdDeviation="2" result="effect1_foregroundBlur_123_38"/>
</filter>
<linearGradient id="paint0_linear_123_38" x1="107.477" y1="59.0534" x2="26.4079" y2="59.0534" gradientUnits="userSpaceOnUse">
<stop stop-color="#C9975A"/>
<stop offset="1" stop-color="#C9975A" stop-opacity="0"/>
</linearGradient>
<linearGradient id="paint1_linear_123_38" x1="215.412" y1="60.9848" x2="296.971" y2="60.9848" gradientUnits="userSpaceOnUse">
<stop stop-color="#C9975A"/>
<stop offset="1" stop-color="#C9975A" stop-opacity="0"/>
</linearGradient>
<linearGradient id="paint2_linear_123_38" x1="161.446" y1="-52.518" x2="161.446" y2="73.255" gradientUnits="userSpaceOnUse">
<stop stop-color="#02E1FF"/>
<stop offset="1" stop-color="#C9975A"/>
</linearGradient>
<linearGradient id="paint3_linear_123_38" x1="161.446" y1="-52.518" x2="161.446" y2="73.255" gradientUnits="userSpaceOnUse">
<stop stop-color="#02E1FF"/>
<stop offset="1" stop-color="#C9975A"/>
</linearGradient>
<linearGradient id="paint4_linear_123_38" x1="161.446" y1="-52.518" x2="161.446" y2="73.255" gradientUnits="userSpaceOnUse">
<stop stop-color="#02E1FF"/>
<stop offset="1" stop-color="#C9975A"/>
</linearGradient>
<linearGradient id="paint5_linear_123_38" x1="110.903" y1="25.503" x2="110.198" y2="42.9225" gradientUnits="userSpaceOnUse">
<stop stop-color="#8EEBD8" stop-opacity="0"/>
<stop offset="1" stop-color="#8AFFE7"/>
</linearGradient>
<linearGradient id="paint6_linear_123_38" x1="211.785" y1="25.503" x2="212.49" y2="42.9225" gradientUnits="userSpaceOnUse">
<stop stop-color="#8EEBD8" stop-opacity="0"/>
<stop offset="1" stop-color="#8AFFE7"/>
</linearGradient>
<linearGradient id="paint7_linear_123_38" x1="110.903" y1="94.4305" x2="110.198" y2="77.011" gradientUnits="userSpaceOnUse">
<stop stop-color="#C9975A" stop-opacity="0"/>
<stop offset="1" stop-color="#F5B464"/>
</linearGradient>
<linearGradient id="paint8_linear_123_38" x1="211.785" y1="94.4305" x2="212.49" y2="77.011" gradientUnits="userSpaceOnUse">
<stop stop-color="#C9975A" stop-opacity="0"/>
<stop offset="1" stop-color="#F5B464"/>
</linearGradient>
</defs>
</svg>
