<svg width="73" height="14" viewBox="0 0 73 14" fill="none" xmlns="http://www.w3.org/2000/svg">
<path d="M16.4417 3.3621e-05H10.2563C10.1674 1.18824e-05 10.0821 0.0344759 10.0186 0.09602C9.95507 0.157564 9.91837 0.241296 9.91639 0.329306V5.3058C9.91549 5.37128 9.89534 5.43506 9.85841 5.48937C9.82147 5.54367 9.76936 5.58613 9.70845 5.61155C9.64754 5.63696 9.58051 5.64422 9.51549 5.63244C9.45048 5.62067 9.3903 5.59037 9.3424 5.54525L3.73848 0.0973217C3.70832 0.0660048 3.67196 0.0412104 3.63168 0.0244698C3.59139 0.00772929 3.54804 -0.000600019 3.50436 3.3621e-05H0.33987C0.251027 1.18824e-05 0.16572 0.0344759 0.102196 0.09602C0.0386726 0.157564 0.00197429 0.241296 0 0.329306V5.98677C0 6.07608 0.0358324 6.16174 0.0995687 6.2249C0.163305 6.28805 0.249734 6.32353 0.33987 6.32353H7.59027C7.69443 6.32353 7.7943 6.36454 7.86795 6.43751C7.9416 6.51049 7.98296 6.60945 7.98296 6.71266C7.98103 6.81527 7.93902 6.91314 7.86579 6.98571C7.79255 7.05827 7.69382 7.09989 7.59027 7.10181H0.33987C0.251027 7.10179 0.16572 7.13623 0.102196 7.19778C0.0386726 7.25932 0.00197429 7.34307 0 7.43108V13.0885C0 13.1779 0.0358324 13.2635 0.0995687 13.3267C0.163305 13.3898 0.249734 13.4253 0.33987 13.4253H9.64452C9.73465 13.4253 9.82108 13.3898 9.88482 13.3267C9.94855 13.2635 9.98439 13.1779 9.98439 13.0885V7.43108C9.98241 7.34307 9.94571 7.25932 9.88219 7.19778C9.81867 7.13623 9.73336 7.10179 9.64452 7.10181H9.18383C9.07967 7.10181 8.97975 7.06081 8.9061 6.98783C8.83244 6.91485 8.79108 6.81587 8.79108 6.71266C8.79108 6.60945 8.83244 6.51049 8.9061 6.43751C8.97975 6.36454 9.07967 6.32353 9.18383 6.32353H16.4417C16.5319 6.32353 16.6183 6.28805 16.682 6.2249C16.7458 6.16174 16.7816 6.07608 16.7816 5.98677V0.329306C16.7796 0.241296 16.7429 0.157564 16.6794 0.09602C16.6159 0.0344759 16.5306 1.18824e-05 16.4417 3.3621e-05Z" fill="#C3C0BA"/>
<path d="M65.3761 6.32351H72.6675C72.7564 6.32156 72.841 6.28522 72.9031 6.22227C72.9652 6.15933 73 6.07478 73 5.98675V0.329273C73 0.241945 72.965 0.158194 72.9026 0.0964433C72.8403 0.034693 72.7557 0 72.6675 0H56.5508C56.4627 0 56.3781 0.034693 56.3157 0.0964433C56.2534 0.158194 56.2184 0.241945 56.2184 0.329273V5.98675C56.2184 6.07478 56.2531 6.15933 56.3153 6.22227C56.3774 6.28522 56.462 6.32156 56.5508 6.32351H63.8423C63.9465 6.32351 64.0464 6.36452 64.1201 6.4375C64.1938 6.51047 64.2352 6.60944 64.2352 6.71264C64.2352 6.81585 64.1938 6.91484 64.1201 6.98781C64.0464 7.06079 63.9465 7.1018 63.8423 7.1018H56.5508C56.4627 7.1018 56.3781 7.13649 56.3157 7.19824C56.2534 7.25999 56.2184 7.34374 56.2184 7.43107V13.0885C56.2184 13.1766 56.2531 13.2611 56.3153 13.324C56.3774 13.387 56.462 13.4233 56.5508 13.4253H72.6675C72.7564 13.4233 72.841 13.387 72.9031 13.324C72.9652 13.2611 73 13.1766 73 13.0885V7.43107C73 7.34374 72.965 7.25999 72.9026 7.19824C72.8403 7.13649 72.7557 7.1018 72.6675 7.1018H65.3761C65.2719 7.1018 65.1719 7.06079 65.0983 6.98781C65.0246 6.91484 64.9832 6.81585 64.9832 6.71264C64.9832 6.60944 65.0246 6.51047 65.0983 6.4375C65.1719 6.36452 65.2719 6.32351 65.3761 6.32351Z" fill="#C3C0BA"/>
<path d="M54.1446 4.84219e-05H50.861C50.8075 -0.0008293 50.7546 0.0102366 50.7065 0.0323407C50.6584 0.0544448 50.6164 0.0869742 50.5841 0.127276L45.995 5.51534C45.9617 5.55576 45.9191 5.58847 45.8704 5.61096C45.8217 5.63346 45.7682 5.64513 45.7141 5.64513C45.6599 5.64513 45.6064 5.63346 45.5577 5.61096C45.5091 5.58847 45.4665 5.55576 45.4332 5.51534L40.8441 0.127276C40.8105 0.0882207 40.7683 0.0565812 40.7205 0.0346016C40.6726 0.0126221 40.6203 0.000826671 40.5671 4.84219e-05H37.2756C37.1825 2.66833e-05 37.0932 0.0344906 37.0266 0.0960347C36.9601 0.157579 36.9216 0.241311 36.9196 0.32932V13.0885C36.9196 13.1328 36.9288 13.1766 36.9466 13.2174C36.9645 13.2583 36.9908 13.2954 37.0238 13.3267C37.0569 13.3579 37.0961 13.3827 37.1393 13.3997C37.1825 13.4166 37.2289 13.4253 37.2756 13.4253H44.9822C45.0766 13.4253 45.1672 13.3898 45.2339 13.3267C45.3007 13.2635 45.3382 13.1779 45.3382 13.0885V6.71267C45.3521 6.6178 45.4018 6.5309 45.4782 6.46799C45.5545 6.40507 45.6523 6.3704 45.7536 6.3704C45.8549 6.3704 45.9527 6.40507 46.0291 6.46799C46.1054 6.5309 46.1552 6.6178 46.169 6.71267V13.0885C46.169 13.1766 46.2054 13.2611 46.2705 13.324C46.3356 13.387 46.4241 13.4233 46.5172 13.4253H54.1842C54.2786 13.4253 54.3692 13.3898 54.4359 13.3267C54.5027 13.2635 54.5402 13.1779 54.5402 13.0885V0.32932C54.5382 0.241311 54.4997 0.157579 54.4332 0.0960347C54.3666 0.0344906 54.2773 2.66833e-05 54.1842 4.84219e-05" fill="#C3C0BA"/>
<path d="M26.843 1.08511C27.9663 1.08511 29.0644 1.41515 29.9984 2.03351C30.9323 2.65187 31.6603 3.53078 32.0902 4.55908C32.52 5.58738 32.6325 6.7189 32.4134 7.81054C32.1942 8.90218 31.6533 9.90489 30.859 10.6919C30.0647 11.4789 29.0527 12.0149 27.951 12.2321C26.8493 12.4492 25.7074 12.3377 24.6696 11.9118C23.6318 11.4859 22.7448 10.7646 22.1207 9.83914C21.4967 8.91369 21.1636 7.82567 21.1636 6.71264C21.1656 5.22073 21.7646 3.7905 22.8292 2.73556C23.8939 1.68062 25.3374 1.08709 26.843 1.08511ZM34.894 1.02778e-08H18.7996C18.7108 -2.17285e-05 18.6255 0.0344424 18.562 0.0959866C18.4985 0.157531 18.4618 0.241263 18.4598 0.329273V13.0885C18.4598 13.1779 18.4956 13.2635 18.5593 13.3267C18.6231 13.3898 18.7095 13.4253 18.7996 13.4253H34.9015C34.9917 13.4253 35.0781 13.3898 35.1418 13.3267C35.2056 13.2635 35.2414 13.1779 35.2414 13.0885V0.329273C35.2394 0.241263 35.2027 0.157531 35.1392 0.0959866C35.0757 0.0344424 34.9904 -2.17285e-05 34.9015 1.02778e-08" fill="#C3C0BA"/>
</svg>
