<svg width="60" height="60" viewBox="0 0 60 60" fill="none" xmlns="http://www.w3.org/2000/svg">
<g filter="url(#filter0_b_152_6)">
<circle cx="30" cy="30" r="30" fill="url(#paint0_linear_152_6)"/>
</g>
<mask id="mask0_152_6" style="mask-type:alpha" maskUnits="userSpaceOnUse" x="0" y="0" width="60" height="60">
<circle cx="30" cy="30" r="30" fill="url(#paint1_linear_152_6)"/>
</mask>
<g mask="url(#mask0_152_6)">
<g filter="url(#filter1_d_152_6)">
<path d="M40.0625 34.5315C40.3438 34.719 40.6719 34.5784 40.8125 34.2971C42.5938 30.8284 42.5 26.6096 40.5312 23.1877C38.5625 19.8127 35 17.6096 31.0625 17.4221C30.7344 17.3752 30.5 17.6565 30.5 17.9846V18.3596C30.5 18.6409 30.6875 18.8752 31.0156 18.9221C34.3906 19.1096 37.5312 20.9846 39.2656 23.9377C40.9531 26.9377 41.0469 30.594 39.5 33.594C39.3594 33.8752 39.4531 34.2034 39.7344 34.344L40.0625 34.5315Z" fill="#E9AB56"/>
</g>
<g filter="url(#filter2_f_152_6)">
<ellipse cx="53.4928" cy="9.74944" rx="17.3288" ry="16.1401" fill="#EDA54D"/>
</g>
<g filter="url(#filter3_f_152_6)">
<ellipse cx="61.7836" cy="70.2438" rx="17.9477" ry="16.7165" fill="#95F0FB"/>
</g>
<circle cx="30" cy="30" r="29.75" stroke="url(#paint2_linear_152_6)" stroke-width="0.5"/>
</g>
<defs>
<filter id="filter0_b_152_6" x="-6" y="-6" width="72" height="72" filterUnits="userSpaceOnUse" color-interpolation-filters="sRGB">
<feFlood flood-opacity="0" result="BackgroundImageFix"/>
<feGaussianBlur in="BackgroundImageFix" stdDeviation="3"/>
<feComposite in2="SourceAlpha" operator="in" result="effect1_backgroundBlur_152_6"/>
<feBlend mode="normal" in="SourceGraphic" in2="effect1_backgroundBlur_152_6" result="shape"/>
</filter>
<filter id="filter1_d_152_6" x="29.5" y="16.917" width="13.5815" height="19.2" filterUnits="userSpaceOnUse" color-interpolation-filters="sRGB">
<feFlood flood-opacity="0" result="BackgroundImageFix"/>
<feColorMatrix in="SourceAlpha" type="matrix" values="0 0 0 0 0 0 0 0 0 0 0 0 0 0 0 0 0 0 127 0" result="hardAlpha"/>
<feOffset dy="0.5"/>
<feGaussianBlur stdDeviation="0.5"/>
<feComposite in2="hardAlpha" operator="out"/>
<feColorMatrix type="matrix" values="0 0 0 0 0.0901961 0 0 0 0 0.0901961 0 0 0 0 0.0901961 0 0 0 1 0"/>
<feBlend mode="normal" in2="BackgroundImageFix" result="effect1_dropShadow_152_6"/>
<feBlend mode="normal" in="SourceGraphic" in2="effect1_dropShadow_152_6" result="shape"/>
</filter>
<filter id="filter2_f_152_6" x="10.1641" y="-32.3906" width="86.6575" height="84.28" filterUnits="userSpaceOnUse" color-interpolation-filters="sRGB">
<feFlood flood-opacity="0" result="BackgroundImageFix"/>
<feBlend mode="normal" in="SourceGraphic" in2="BackgroundImageFix" result="shape"/>
<feGaussianBlur stdDeviation="13" result="effect1_foregroundBlur_152_6"/>
</filter>
<filter id="filter3_f_152_6" x="17.8359" y="27.5273" width="87.8953" height="85.4331" filterUnits="userSpaceOnUse" color-interpolation-filters="sRGB">
<feFlood flood-opacity="0" result="BackgroundImageFix"/>
<feBlend mode="normal" in="SourceGraphic" in2="BackgroundImageFix" result="shape"/>
<feGaussianBlur stdDeviation="13" result="effect1_foregroundBlur_152_6"/>
</filter>
<linearGradient id="paint0_linear_152_6" x1="30" y1="0" x2="30" y2="60" gradientUnits="userSpaceOnUse">
<stop stop-color="#1C1B1A" stop-opacity="0.79"/>
<stop offset="1" stop-color="#1C1B1A"/>
</linearGradient>
<linearGradient id="paint1_linear_152_6" x1="30" y1="0" x2="30" y2="60" gradientUnits="userSpaceOnUse">
<stop stop-color="#1C1B1A" stop-opacity="0.79"/>
<stop offset="1" stop-color="#1C1B1A"/>
</linearGradient>
<linearGradient id="paint2_linear_152_6" x1="30" y1="0" x2="30" y2="27.6316" gradientUnits="userSpaceOnUse">
<stop stop-color="#828282"/>
<stop offset="1" stop-color="#292725" stop-opacity="0"/>
</linearGradient>
</defs>
</svg>
